<?xml version="1.0" encoding="UTF-8"?>
<svg version="1.1" xmlns="http://www.w3.org/2000/svg" width="1000" height="1000">
<path d="M0 0 C1.63186504 1.51346474 3.25706263 3.03415525 4.875 4.5625 C5.62523437 5.24828125 6.37546875 5.9340625 7.1484375 6.640625 C28.41272049 26.7857352 38.48674573 55.16040065 40.05859375 83.921875 C40.70891233 115.29018289 28.70789859 143.73064263 7.875 166.5625 C7.23175781 167.28824219 6.58851563 168.01398438 5.92578125 168.76171875 C-8.32643327 184.003241 -27.21264336 193.29338409 -47.125 198.5625 C-48.24390625 198.8821875 -49.3628125 199.201875 -50.515625 199.53125 C-78.71173965 206.48371663 -109.02761716 200.52563343 -134.03125 186.4765625 C-161.07340979 169.74593334 -179.97167122 144.66937385 -187.62133789 113.82250977 C-189.63867436 104.77040908 -190.4851797 96.01920921 -190.4375 86.75 C-190.43258545 85.60998535 -190.4276709 84.4699707 -190.42260742 83.29541016 C-190.30303352 74.67505185 -189.46896755 66.89025463 -187.125 58.5625 C-186.80789063 57.31210938 -186.49078125 56.06171875 -186.1640625 54.7734375 C-181.60121755 37.81068764 -172.74213461 22.64246968 -161.125 9.5625 C-160.33609375 8.67304688 -159.5471875 7.78359375 -158.734375 6.8671875 C-141.51013101 -11.32663314 -117.01621437 -24.04524601 -92.125 -27.4375 C-91.34511719 -27.54707031 -90.56523438 -27.65664062 -89.76171875 -27.76953125 C-57.00490044 -31.68781095 -24.67948035 -21.74054986 0 0 Z " fill="#000000" transform="translate(660.125,158.4375)"/>
<path d="M0 0 C20.68753153 18.25370429 34.06321121 44.56117927 37 72 C38.85384296 107.36262267 30.29080041 136.750146 6.9375 163.8125 C-11.87322084 184.35336542 -39.16406171 198.39100816 -67.16552734 200.20507812 C-70.52993535 200.30301723 -73.88422703 200.3289603 -77.25 200.3125 C-78.44149658 200.30758545 -79.63299316 200.3026709 -80.8605957 200.29760742 C-89.62427401 200.18109298 -97.54169624 199.41665822 -106 197 C-106.62841797 196.83371094 -107.25683594 196.66742188 -107.90429688 196.49609375 C-137.0370862 188.7617249 -161.64389749 169.72435204 -177.16015625 143.90332031 C-192.9444731 116.67764161 -196.94292356 84.53010458 -188.9375 54.1875 C-183.52505586 34.99603139 -173.61903456 19.41739175 -160 5 C-159.31421875 4.24976563 -158.6284375 3.49953125 -157.921875 2.7265625 C-115.71311933 -41.82712404 -44.63568882 -38.20293828 0 0 Z " fill="#000000" transform="translate(323,160)"/>
<path d="M0 0 C1.14001465 0.00491455 2.2800293 0.0098291 3.45458984 0.01489258 C12.07140311 0.1344173 19.86497165 0.95903702 28.1875 3.3125 C28.81736816 3.47878906 29.44723633 3.64507812 30.09619141 3.81640625 C59.69574083 11.67662591 84.16060758 31.1904762 100.03710938 57.30078125 C115.45801663 84.26773282 119.00824172 116.24549586 111.125 146.125 C105.71255586 165.31646861 95.80653456 180.89510825 82.1875 195.3125 C81.50171875 196.06273437 80.8159375 196.81296875 80.109375 197.5859375 C59.9642648 218.85022049 31.58959935 228.92424573 2.828125 230.49609375 C-29.90398021 231.17468618 -59.60880741 217.84159152 -83 195.5625 C-105.96692725 171.54307854 -115.45796541 141.88392121 -115.08984375 109.12109375 C-114.24459258 79.04108566 -100.29191771 51.49354589 -79.02734375 30.5546875 C-57.17217321 10.60198404 -29.59686242 -0.15224269 0 0 Z " fill="#000000" transform="translate(584.8125,469.6875)"/>
<path d="M0 0 C5.11118211 4.75926465 9.45741518 10.017445 13.6875 15.5625 C14.59628906 16.73039063 14.59628906 16.73039063 15.5234375 17.921875 C33.17253298 41.72020284 40.02290547 72.85477566 35.96459961 102.01635742 C33.283605 118.16978363 27.76619094 133.91881758 18.6875 147.5625 C18.03394531 148.54992187 17.38039063 149.53734375 16.70703125 150.5546875 C0.46432438 173.53217527 -22.35095874 188.97417709 -49.3125 196.5625 C-50.39789063 196.8821875 -51.48328125 197.201875 -52.6015625 197.53125 C-69.74088079 201.78652902 -90.37591628 201.582852 -107.3125 196.5625 C-108.00956055 196.36382324 -108.70662109 196.16514648 -109.42480469 195.96044922 C-138.58652379 187.53019911 -163.03693744 168.95924315 -178.3125 142.5625 C-178.95703125 141.45648437 -179.6015625 140.35046875 -180.265625 139.2109375 C-195.18882438 111.50569343 -197.00293996 79.34661536 -188.125 49.5 C-179.12832871 21.36464067 -158.9230126 -3.02365606 -132.81640625 -16.90234375 C-88.15645589 -39.48488376 -37.72651107 -32.46100109 0 0 Z " fill="#000000" transform="translate(493.3125,669.4375)"/>
<path d="M0 0 C19.65565432 16.52452864 32.91574316 36.87237842 39.86669922 61.56933594 C40.18638672 62.65472656 40.50607422 63.74011719 40.83544922 64.85839844 C45.09072824 81.99771673 44.88705122 102.63275221 39.86669922 119.56933594 C39.56868408 120.61492676 39.56868408 120.61492676 39.26464844 121.68164062 C30.83439833 150.84335973 12.26344237 175.29377338 -14.13330078 190.56933594 C-15.23931641 191.21386719 -16.34533203 191.85839844 -17.48486328 192.52246094 C-45.19010735 207.44566032 -77.34918542 209.2597759 -107.19580078 200.38183594 C-135.33116011 191.38516465 -159.71945684 171.17984854 -173.59814453 145.07324219 C-188.22761704 116.14453358 -190.96165663 84.54598644 -181.13330078 53.56933594 C-176.17308676 39.52640555 -168.77401456 26.90342859 -159.13330078 15.56933594 C-158.58029297 14.88226563 -158.02728516 14.19519531 -157.45751953 13.48730469 C-152.67488376 7.70020125 -147.07012942 3.13358302 -141.13330078 -1.43066406 C-140.35212891 -2.03910156 -139.57095703 -2.64753906 -138.76611328 -3.27441406 C-98.19776641 -33.32504138 -39.25564265 -31.27999526 0 0 Z " fill="#000000" transform="translate(826.13330078125,324.4306640625)"/>
<path d="M0 0 C5.11118211 4.75926465 9.45741518 10.017445 13.6875 15.5625 C14.59628906 16.73039063 14.59628906 16.73039063 15.5234375 17.921875 C33.17253298 41.72020284 40.02290547 72.85477566 35.96459961 102.01635742 C33.283605 118.16978363 27.76619094 133.91881758 18.6875 147.5625 C18.03394531 148.54992187 17.38039063 149.53734375 16.70703125 150.5546875 C0.46432438 173.53217527 -22.35095874 188.97417709 -49.3125 196.5625 C-50.39789063 196.8821875 -51.48328125 197.201875 -52.6015625 197.53125 C-69.74088079 201.78652902 -90.37591628 201.582852 -107.3125 196.5625 C-108.00956055 196.36382324 -108.70662109 196.16514648 -109.42480469 195.96044922 C-138.58652379 187.53019911 -163.03693744 168.95924315 -178.3125 142.5625 C-178.95703125 141.45648437 -179.6015625 140.35046875 -180.265625 139.2109375 C-195.18882438 111.50569343 -197.00293996 79.34661536 -188.125 49.5 C-179.12832871 21.36464067 -158.9230126 -3.02365606 -132.81640625 -16.90234375 C-88.15645589 -39.48488376 -37.72651107 -32.46100109 0 0 Z M-153.3125 6.5625 C-154.611875 7.8 -154.611875 7.8 -155.9375 9.0625 C-156.72125 9.8875 -157.505 10.7125 -158.3125 11.5625 C-159.20001953 12.47515625 -159.20001953 12.47515625 -160.10546875 13.40625 C-180.81418069 35.51690569 -187.74082164 63.35882586 -186.79296875 92.875 C-186.32189866 102.57643342 -184.64002762 111.44968263 -181.3125 120.5625 C-181.05549316 121.27245117 -180.79848633 121.98240234 -180.53369141 122.71386719 C-174.71149271 138.24687858 -165.81628637 150.75784538 -154.3125 162.5625 C-153.74273437 163.20574219 -153.17296875 163.84898437 -152.5859375 164.51171875 C-140.34074898 177.98142613 -121.50942755 186.20649554 -104.3125 190.5625 C-102.62447266 191.07876953 -102.62447266 191.07876953 -100.90234375 191.60546875 C-75.17044486 198.46544179 -45.44491227 191.7527312 -22.765625 178.6796875 C3.2848823 162.99444864 19.99729575 138.68393238 27.6875 109.5625 C27.87223877 108.92401123 28.05697754 108.28552246 28.24731445 107.62768555 C30.17602786 100.27268582 30.13038221 92.81090706 30.125 85.25 C30.1250705 84.54074371 30.12514099 83.83148743 30.12521362 83.10073853 C30.01539984 54.31534358 18.94351492 28.19362631 -1.3125 7.5625 C-23.54317323 -14.27119692 -52.31524121 -23.88145831 -83.00048828 -23.87426758 C-109.81332239 -23.3127969 -134.12519832 -11.84164651 -153.3125 6.5625 Z " fill="#F9F9F9" transform="translate(493.3125,669.4375)"/>
<path d="M0 0 C19.65565432 16.52452864 32.91574316 36.87237842 39.86669922 61.56933594 C40.18638672 62.65472656 40.50607422 63.74011719 40.83544922 64.85839844 C45.09072824 81.99771673 44.88705122 102.63275221 39.86669922 119.56933594 C39.56868408 120.61492676 39.56868408 120.61492676 39.26464844 121.68164062 C30.83439833 150.84335973 12.26344237 175.29377338 -14.13330078 190.56933594 C-15.23931641 191.21386719 -16.34533203 191.85839844 -17.48486328 192.52246094 C-45.19010735 207.44566032 -77.34918542 209.2597759 -107.19580078 200.38183594 C-135.33116011 191.38516465 -159.71945684 171.17984854 -173.59814453 145.07324219 C-188.22761704 116.14453358 -190.96165663 84.54598644 -181.13330078 53.56933594 C-176.17308676 39.52640555 -168.77401456 26.90342859 -159.13330078 15.56933594 C-158.58029297 14.88226563 -158.02728516 14.19519531 -157.45751953 13.48730469 C-152.67488376 7.70020125 -147.07012942 3.13358302 -141.13330078 -1.43066406 C-140.35212891 -2.03910156 -139.57095703 -2.64753906 -138.76611328 -3.27441406 C-98.19776641 -33.32504138 -39.25564265 -31.27999526 0 0 Z M-152.57080078 17.19433594 C-163.78544237 30.49897891 -172.51281053 45.73914441 -177.13330078 62.56933594 C-177.43107422 63.56191406 -177.72884766 64.55449219 -178.03564453 65.57714844 C-185.1404188 92.75209148 -178.61812649 122.57963541 -165.23779297 146.703125 C-162.30893886 151.6518785 -158.7768903 156.12892404 -155.13330078 160.56933594 C-154.59833984 161.24480469 -154.06337891 161.92027344 -153.51220703 162.61621094 C-137.6472276 182.04973588 -111.9155463 195.663086 -87.13330078 198.56933594 C-69.77558715 199.89736324 -52.64225873 199.55257347 -36.13330078 193.56933594 C-35.42189941 193.3123291 -34.71049805 193.05532227 -33.97753906 192.79052734 C-18.44703974 186.96793048 -5.93625557 178.07146579 5.86669922 166.56933594 C6.50994141 165.99957031 7.15318359 165.42980469 7.81591797 164.84277344 C24.19164526 149.95574862 35.15299218 123.31651962 36.86669922 101.56933594 C38.22438458 69.91316521 30.34649157 40.67795524 8.56982422 16.89355469 C-6.88970785 0.61510403 -25.52337438 -9.72405095 -47.13330078 -15.43066406 C-47.77178955 -15.61540283 -48.41027832 -15.8001416 -49.06811523 -15.99047852 C-56.42311496 -17.91919192 -63.88489372 -17.87354627 -71.44580078 -17.86816406 C-72.15505707 -17.86823456 -72.86431335 -17.86830505 -73.59506226 -17.86837769 C-103.90003539 -17.75276684 -131.9601981 -5.2899579 -152.57080078 17.19433594 Z " fill="#F9F9F9" transform="translate(826.13330078125,324.4306640625)"/>
<path d="M0 0 C20.68753153 18.25370429 34.06321121 44.56117927 37 72 C38.85384296 107.36262267 30.29080041 136.750146 6.9375 163.8125 C-11.87322084 184.35336542 -39.16406171 198.39100816 -67.16552734 200.20507812 C-70.52993535 200.30301723 -73.88422703 200.3289603 -77.25 200.3125 C-78.44149658 200.30758545 -79.63299316 200.3026709 -80.8605957 200.29760742 C-89.62427401 200.18109298 -97.54169624 199.41665822 -106 197 C-106.62841797 196.83371094 -107.25683594 196.66742188 -107.90429688 196.49609375 C-137.0370862 188.7617249 -161.64389749 169.72435204 -177.16015625 143.90332031 C-192.9444731 116.67764161 -196.94292356 84.53010458 -188.9375 54.1875 C-183.52505586 34.99603139 -173.61903456 19.41739175 -160 5 C-159.31421875 4.24976563 -158.6284375 3.49953125 -157.921875 2.7265625 C-115.71311933 -41.82712404 -44.63568882 -38.20293828 0 0 Z M-154 8 C-155.02867187 8.93392578 -155.02867187 8.93392578 -156.078125 9.88671875 C-169.5379296 22.52515732 -178.47653315 40.27762505 -183 58 C-183.44666016 59.52173828 -183.44666016 59.52173828 -183.90234375 61.07421875 C-190.88300212 87.74226387 -184.80096493 117.20704845 -171.5234375 140.84765625 C-159.14709815 161.84061957 -140.91118376 176.03850217 -119 186 C-117.85015625 186.52464844 -116.7003125 187.04929687 -115.515625 187.58984375 C-111.79664885 189.0815664 -108.07320859 190.18306701 -104.1875 191.125 C-103.47956299 191.29676758 -102.77162598 191.46853516 -102.04223633 191.64550781 C-96.65132457 192.91482753 -91.52947496 193.81919973 -86 194 C-85.33129883 194.02578125 -84.66259766 194.0515625 -83.97363281 194.078125 C-55.33086306 195.06030313 -27.53511475 186.15453234 -6 167 C-5.14535156 166.32710937 -4.29070312 165.65421875 -3.41015625 164.9609375 C15.24219211 149.78512085 27.56428652 122.84314576 30.75390625 99.33203125 C33.10720896 67.46905964 25.54748344 39.21730637 4.80859375 14.375 C-12.99918954 -5.94135798 -38.61824179 -21.04460353 -66 -23 C-100.23026398 -25.03130172 -129.11652346 -15.8109129 -154 8 Z " fill="#FAFAFA" transform="translate(323,160)"/>
<path d="M0 0 C1.63186504 1.51346474 3.25706263 3.03415525 4.875 4.5625 C5.62523437 5.24828125 6.37546875 5.9340625 7.1484375 6.640625 C28.41272049 26.7857352 38.48674573 55.16040065 40.05859375 83.921875 C40.70891233 115.29018289 28.70789859 143.73064263 7.875 166.5625 C7.23175781 167.28824219 6.58851563 168.01398438 5.92578125 168.76171875 C-8.32643327 184.003241 -27.21264336 193.29338409 -47.125 198.5625 C-48.24390625 198.8821875 -49.3628125 199.201875 -50.515625 199.53125 C-78.71173965 206.48371663 -109.02761716 200.52563343 -134.03125 186.4765625 C-161.07340979 169.74593334 -179.97167122 144.66937385 -187.62133789 113.82250977 C-189.63867436 104.77040908 -190.4851797 96.01920921 -190.4375 86.75 C-190.43258545 85.60998535 -190.4276709 84.4699707 -190.42260742 83.29541016 C-190.30303352 74.67505185 -189.46896755 66.89025463 -187.125 58.5625 C-186.80789063 57.31210938 -186.49078125 56.06171875 -186.1640625 54.7734375 C-181.60121755 37.81068764 -172.74213461 22.64246968 -161.125 9.5625 C-160.33609375 8.67304688 -159.5471875 7.78359375 -158.734375 6.8671875 C-141.51013101 -11.32663314 -117.01621437 -24.04524601 -92.125 -27.4375 C-91.34511719 -27.54707031 -90.56523438 -27.65664062 -89.76171875 -27.76953125 C-57.00490044 -31.68781095 -24.67948035 -21.74054986 0 0 Z M-107.125 -17.4375 C-108.80142578 -16.89416016 -108.80142578 -16.89416016 -110.51171875 -16.33984375 C-139.46683572 -6.03615315 -161.24897071 14.25038977 -174.43359375 41.87109375 C-175.00074272 43.10002344 -175.56464943 44.33045561 -176.125 45.5625 C-176.64964844 46.70847656 -177.17429687 47.85445313 -177.71484375 49.03515625 C-179.23648894 52.84137677 -180.2974877 56.58480864 -181.25 60.5625 C-181.41886719 61.23539062 -181.58773438 61.90828125 -181.76171875 62.6015625 C-185.73728703 78.81687249 -185.6134333 96.47894735 -181.125 112.5625 C-180.93164062 113.25762695 -180.73828125 113.95275391 -180.5390625 114.66894531 C-175.80619072 131.22669274 -168.61838226 145.6835519 -157.125 158.5625 C-156.34125 159.59375 -155.5575 160.625 -154.75 161.6875 C-150.645048 166.18339981 -145.93001393 169.84122562 -141.125 173.5625 C-139.949375 174.47902344 -139.949375 174.47902344 -138.75 175.4140625 C-127.39584908 183.81459984 -114.82476894 189.3028998 -101.125 192.5625 C-100.06539062 192.86027344 -99.00578125 193.15804687 -97.9140625 193.46484375 C-72.22260316 200.08603933 -43.28907027 194.40555419 -20.59765625 181.1484375 C6.06197014 164.04921426 24.6547222 139.57152233 31.55859375 108.484375 C36.51034415 80.20817271 31.80473081 50.44308268 15.4375 26.5625 C11.2769001 20.87920632 6.7412645 15.64796561 1.875 10.5625 C1.25238281 9.87671875 0.62976563 9.1909375 -0.01171875 8.484375 C-17.06466219 -9.67683102 -44.00372592 -20.93234208 -68.7265625 -21.7734375 C-82.07781177 -21.94401533 -94.39740614 -21.64325962 -107.125 -17.4375 Z " fill="#FAFAFA" transform="translate(660.125,158.4375)"/>
<path d="M0 0 C1.14001465 0.00491455 2.2800293 0.0098291 3.45458984 0.01489258 C12.07140311 0.1344173 19.86497165 0.95903702 28.1875 3.3125 C28.81736816 3.47878906 29.44723633 3.64507812 30.09619141 3.81640625 C59.69574083 11.67662591 84.16060758 31.1904762 100.03710938 57.30078125 C115.45801663 84.26773282 119.00824172 116.24549586 111.125 146.125 C105.71255586 165.31646861 95.80653456 180.89510825 82.1875 195.3125 C81.50171875 196.06273437 80.8159375 196.81296875 80.109375 197.5859375 C59.9642648 218.85022049 31.58959935 228.92424573 2.828125 230.49609375 C-29.90398021 231.17468618 -59.60880741 217.84159152 -83 195.5625 C-105.96692725 171.54307854 -115.45796541 141.88392121 -115.08984375 109.12109375 C-114.24459258 79.04108566 -100.29191771 51.49354589 -79.02734375 30.5546875 C-57.17217321 10.60198404 -29.59686242 -0.15224269 0 0 Z M-71.8125 33.3125 C-72.823125 34.075625 -73.83375 34.83875 -74.875 35.625 C-79.39072221 39.75640543 -83.07115613 44.48157177 -86.8125 49.3125 C-87.42351562 50.09625 -88.03453125 50.88 -88.6640625 51.6875 C-97.06580853 63.04328458 -102.54900351 75.61212101 -105.8125 89.3125 C-106.11027344 90.36050781 -106.40804688 91.40851563 -106.71484375 92.48828125 C-113.32591452 117.92719411 -107.76864691 146.05420887 -95 168.6875 C-78.62576802 195.77768689 -54.93661314 213.20522316 -24.44921875 221.4375 C-6.61466211 225.72852115 13.71990129 224.88347687 31.1875 219.3125 C31.87199219 219.09819336 32.55648437 218.88388672 33.26171875 218.66308594 C61.39394752 209.59796344 83.90968801 189.73074038 97.4375 163.5625 C101.44750027 155.48568948 104.09720811 147.06781371 106.1875 138.3125 C106.46678345 137.18992798 106.46678345 137.18992798 106.75170898 136.04467773 C108.33800615 129.0653934 108.53515964 122.26391327 108.5 115.125 C108.49154053 113.33098755 108.49154053 113.33098755 108.48291016 111.50073242 C108.08679882 82.62970647 95.4620476 57.31457645 75.875 36.5625 C54.61402485 16.24394396 25.898957 5.71567385 -3.2956543 5.82275391 C-29.34523551 6.55756082 -52.0222492 16.92589162 -71.8125 33.3125 Z " fill="#FAFAFA" transform="translate(584.8125,469.6875)"/>
</svg>
